<svg width="21" height="32" viewBox="0 0 21 32" fill="none" xmlns="http://www.w3.org/2000/svg">
<path d="M1.86737 8.17738C6.02545 8.17738 9.40835 11.5603 9.40835 15.7184V17.213H11.1929V15.7184C11.1929 11.5603 14.5758 8.17738 18.7339 8.17738H20.1555C19.7671 6.08072 18.7241 4.21105 17.2471 2.78906L10.3006 9.73551L3.35419 2.78906C1.87706 4.21112 0.834127 6.08072 0.445801 8.17738H1.86737Z" fill="#186841"/>
<path d="M10.3005 7.14773L15.8097 1.63853C14.4678 0.752031 12.9013 0.179636 11.2154 0.0263672V3.88755H9.38567V0.0263672C7.69971 0.179636 6.13329 0.752031 4.79126 1.63853L10.3005 7.14773Z" fill="#186841"/>
<path d="M18.7338 10.0068C15.5846 10.0068 13.0225 12.5689 13.0225 15.7181V17.2127H13.9148V19.0424H6.68628V17.2127H7.57857V15.7181C7.57857 12.5689 5.01648 10.0068 1.8673 10.0068H0.277832V14.7914C0.277832 21.5184 3.95122 27.6898 9.86443 30.8972L10.3006 31.1338L10.7368 30.8972C16.65 27.6898 20.3234 21.5184 20.3234 14.7914V10.0068H18.7338ZM15.5051 12.9961H18.517V14.8258H15.5051V12.9961ZM6.4747 23.8678C6.49087 23.8413 6.87761 23.21 7.49574 22.5817C8.40523 21.6572 9.34894 21.1884 10.3006 21.1884C11.2521 21.1884 12.1958 21.6572 13.1053 22.5817C13.7235 23.21 14.1103 23.8412 14.1264 23.8678L14.4157 24.3433L14.1264 24.8188C14.1102 24.8454 13.7235 25.4766 13.1053 26.1049C12.1958 27.0294 11.2521 27.4982 10.3006 27.4982C9.34888 27.4982 8.40523 27.0294 7.49574 26.1049C6.87761 25.4766 6.49087 24.8454 6.4747 24.8188L6.18537 24.3433L6.4747 23.8678ZM2.08419 12.9961H5.09608V14.8258H2.08419V12.9961Z" fill="#186841"/>
<path d="M10.3005 25.669C10.9814 25.669 11.7467 24.9457 12.2247 24.3456C11.7689 23.7725 11.0094 23.0186 10.3005 23.0186C9.61963 23.0186 8.85426 23.742 8.37622 24.342C8.83145 24.9146 9.59133 25.669 10.3005 25.669Z" fill="#186841"/>
</svg>
