<svg width="13" height="7" viewBox="0 0 13 7" fill="none" xmlns="http://www.w3.org/2000/svg">
<path d="M3.09071 0.0848628C4.64676 0.0848628 5.54449 0.845309 5.54449 2.18236C5.54449 3.60297 4.64676 4.42191 3.09071 4.42191H2.26138V5.9428H0.277832V0.0848628H3.09071ZM2.98811 2.95116C3.4156 2.95116 3.66354 2.69211 3.66354 2.24085C3.66354 1.80631 3.4156 1.55561 2.98811 1.55561H2.26138V2.95116H2.98811Z" fill="#186841"/>
<path d="M10.4824 4.22135V2.85924H12.1838V5.27428C11.5169 5.70882 10.414 6.02637 9.55901 6.02637C7.67806 6.02637 6.31009 4.75617 6.31009 3.01801C6.31009 1.28821 7.72936 0.0263672 9.68725 0.0263672C10.6192 0.0263672 11.6366 0.377342 12.2778 0.928874L11.1578 2.25756C10.756 1.88152 10.1746 1.63918 9.6787 1.63918C8.90922 1.63918 8.34494 2.22414 8.34494 3.01801C8.34494 3.8286 8.91777 4.41355 9.6958 4.41355C9.901 4.41355 10.1917 4.33835 10.4824 4.22135Z" fill="#186841"/>
</svg>
